Coordinates
version=1
nRows=21
nColumns=38
inDegrees=no

Units are S.I. units (second, meters, Newtons, ...)
If the header above contains a line with 'inDegrees', this indicates whether rotational values are in degrees (yes) or radians (no).

endheader
time	pelvis_tilt	pelvis_list	pelvis_rotation	pelvis_tx	pelvis_ty	pelvis_tz	hip_flexion_r	hip_adduction_r	hip_rotation_r	knee_angle_r	ankle_angle_r	subtalar_angle_r	mtp_angle_r	hip_flexion_l	hip_adduction_l	hip_rotation_l	knee_angle_l	ankle_angle_l	subtalar_angle_l	mtp_angle_l	lumbar_extension	lumbar_bending	lumbar_rotation	arm_flex_r	arm_add_r	arm_rot_r	elbow_flex_r	pro_sup_r	wrist_flex_r	wrist_dev_r	arm_flex_l	arm_add_l	arm_rot_l	elbow_flex_l	pro_sup_l	wrist_flex_l	wrist_dev_l
1.23333	-0.0386717	0.0720919	0.00420157	1.08772	1.02043	-0.324362	-0.111776	0.00554402	0.0571219	-1.05303	-0.118462	0.0584262	0.000246273	0.520021	0.12417	0.0167988	-0.344426	-0.197439	0.00597459	0.00053478	-0.206025	-0.103267	0.157879	-0.442139	-0.15287	-0.0839642	1.88547	1.48641	0.0308973	-0.0461841	-0.946847	-0.166076	-0.219506	2.1607	1.63268	0.0497249	-0.057201
1.24167	-0.0274307	0.0772954	0.0088491	1.08803	1.01713	-0.324584	-0.0950723	-0.00383094	0.0340317	-1.13137	-0.10586	0.0584262	0.000246273	0.49665	0.135675	0.0237788	-0.340514	-0.196893	0.00597459	0.00053478	-0.221081	-0.111155	0.14239	-0.450607	-0.150615	-0.0846164	1.85845	1.47806	0.0308973	-0.0461841	-0.937879	-0.166996	-0.21928	2.16978	1.6348	0.0497249	-0.057201
1.25	-0.0164868	0.0837298	0.0132323	1.08825	1.01309	-0.324944	-0.0760022	-0.0170282	0.00959356	-1.21047	-0.0951766	0.0584262	0.000246273	0.476158	0.149088	0.0317072	-0.349966	-0.18777	0.00597459	0.00053478	-0.235855	-0.119931	0.126236	-0.459885	-0.148452	-0.0852252	1.82931	1.46721	0.0308973	-0.0461841	-0.927045	-0.168874	-0.217821	2.17744	1.63391	0.0497249	-0.057201
1.25833	-0.00623589	0.0908597	0.0170492	1.08835	1.00829	-0.325406	-0.0542498	-0.0330389	-0.0143051	-1.28986	-0.0853193	0.0584262	0.000246273	0.45923	0.163872	0.0403781	-0.372745	-0.167222	0.00597459	0.00053478	-0.249895	-0.129073	0.10983	-0.469721	-0.146457	-0.0857397	1.79805	1.45436	0.0308973	-0.0461841	-0.914221	-0.171581	-0.215134	2.18346	1.6298	0.0497249	-0.057201
1.26667	0.00294602	0.098205	0.0200741	1.08829	1.00274	-0.325927	-0.0293962	-0.0506971	-0.0359422	-1.36909	-0.075263	0.0584262	0.000246273	0.446332	0.179532	0.0494082	-0.408061	-0.133507	0.00597459	0.00053478	-0.262802	-0.13814	0.0934764	-0.47975	-0.144693	-0.0861317	1.76456	1.44026	0.0308973	-0.0461841	-0.899191	-0.174957	-0.211256	2.18755	1.62267	0.0497249	-0.057201
1.275	0.0107555	0.105376	0.022156	1.08799	0.996502	-0.326455	-0.000989111	-0.0687742	-0.0538777	-1.44765	-0.0643147	0.0584262	0.000246273	0.437591	0.195588	0.0582152	-0.454244	-0.0865795	0.00597459	0.00053478	-0.274283	-0.146794	0.0773746	-0.489519	-0.143183	-0.0864064	1.72861	1.42576	0.0308973	-0.0461841	-0.881642	-0.178848	-0.206226	2.18942	1.61311	0.0497249	-0.057201
1.28333	0.0169929	0.1121	0.0232035	1.08739	0.989717	-0.326929	0.0313757	-0.0861129	-0.0670589	-1.52488	-0.052243	0.0584262	0.000246273	0.43271	0.211563	0.066074	-0.508773	-0.0282993	0.00597459	0.00053478	-0.284173	-0.154838	0.0616321	-0.49854	-0.141893	-0.0866058	1.68997	1.41172	0.0308973	-0.0461841	-0.861194	-0.183148	-0.200062	2.18883	1.60191	0.0497249	-0.057201
1.29167	0.0215784	0.118222	0.0231709	1.08646	0.982561	-0.327293	0.0679768	-0.10174	-0.0748831	-1.59995	-0.0392628	0.0584262	0.000246273	0.430952	0.226982	0.072264	-0.568462	0.0378502	0.00597459	0.00053478	-0.292438	-0.162205	0.0462838	-0.50636	-0.140723	-0.0868162	1.64845	1.39888	0.0308973	-0.0461841	-0.837465	-0.18783	-0.192749	2.18569	1.58996	0.0497249	-0.057201
1.3	0.0245461	0.123683	0.022061	1.08523	0.97525	-0.327504	0.108908	-0.114947	-0.0772327	-1.67179	-0.0258923	0.0584262	0.000246273	0.431194	0.241392	0.0762574	-0.629769	0.10748	0.00597459	0.00053478	-0.299148	-0.168925	0.0313038	-0.512647	-0.139516	-0.0871698	1.6041	1.38769	0.0308973	-0.0461841	-0.810155	-0.192942	-0.184226	2.18008	1.57805	0.0497249	-0.057201
1.30833	0.0260228	0.128488	0.0199394	1.08372	0.968034	-0.327555	0.154011	-0.125319	-0.0744749	-1.73913	-0.0127488	0.0584262	0.000246273	0.432013	0.254393	0.077888	-0.689159	0.176183	0.00597459	0.00053478	-0.304455	-0.175049	0.0166079	-0.517266	-0.138086	-0.0878477	1.55727	1.37831	0.0308973	-0.0461841	-0.779141	-0.198587	-0.174414	2.17242	1.56681	0.0497249	-0.057201
1.31667	0.0262013	0.132629	0.0169501	1.08195	0.96118	-0.32746	0.202835	-0.132703	-0.0674149	-1.8006	-0.000355995	0.0584262	0.000246273	0.43184	0.265647	0.0774314	-0.743474	0.240301	0.00597459	0.00053478	-0.308568	-0.180557	0.00205902	-0.520341	-0.136255	-0.0890828	1.50877	1.37055	0.0308973	-0.0461841	-0.744565	-0.204871	-0.163249	2.16342	1.55668	0.0497249	-0.057201
1.325	0.0253345	0.136025	0.0133267	1.07994	0.954947	-0.327247	0.254621	-0.137151	-0.0572136	-1.85476	0.0109776	0.0584262	0.000246273	0.429128	0.274883	0.0755874	-0.790204	0.297345	0.00597459	0.00053478	-0.31173	-0.18528	-0.0125251	-0.522255	-0.133895	-0.0911618	1.45988	1.36395	0.0308973	-0.0461841	-0.70689	-0.211839	-0.150733	2.15413	1.54791	0.0497249	-0.057201
1.33333	0.0236837	0.138485	0.00938006	1.07777	0.949553	-0.326958	0.308371	-0.138838	-0.0452643	-1.90023	0.0211906	0.0584262	0.000246273	0.422568	0.28188	0.0733477	-0.827673	0.346049	0.00597459	0.00053478	-0.314152	-0.188869	-0.0273466	-0.52362	-0.130944	-0.0944174	1.41225	1.35785	0.0308973	-0.0461841	-0.666915	-0.219419	-0.136983	2.14583	1.54057	0.0497249	-0.057201
1.34167	0.0214689	0.13972	0.00547083	1.07552	0.945157	-0.326641	0.362949	-0.13802	-0.0330594	-1.93583	0.0304203	0.0584262	0.000246273	0.411252	0.28645	0.071816	-0.855058	0.386139	0.00597459	0.00053478	-0.315954	-0.19082	-0.0426025	-0.52518	-0.127413	-0.0992069	1.36778	1.35154	0.0308973	-0.0461841	-0.625738	-0.227395	-0.122274	2.13995	1.53456	0.0497249	-0.057201
1.35	0.0188216	0.139385	0.00196772	1.07331	0.941863	-0.326347	0.417205	-0.135015	-0.0220578	-1.96064	0.0389113	0.0584262	0.000246273	0.394751	0.288444	0.0720118	-0.872281	0.417947	0.00597459	0.00053478	-0.317118	-0.190557	-0.0584553	-0.527697	-0.123377	-0.105872	1.32834	1.34444	0.0308973	-0.0461841	-0.584664	-0.235414	-0.107052	2.13784	1.52972	0.0497249	-0.057201
1.35833	0.0157585	0.137148	-0.000806032	1.07124	0.939733	-0.326116	0.470076	-0.130199	-0.0135635	-1.97405	0.0469187	0.0584262	0.000246273	0.373112	0.287748	0.0746922	-0.87981	0.442042	0.00597459	0.00053478	-0.317475	-0.187539	-0.0749969	-0.531842	-0.118968	-0.114688	1.29554	1.33627	0.0308973	-0.0461841	-0.545074	-0.243031	-0.0919019	2.14062	1.52593	0.0497249	-0.057201
1.36667	0.0121932	0.132753	-0.0026304	1.06941	0.938793	-0.325968	0.520651	-0.123997	-0.0086228	-1.9758	0.0546309	0.0584262	0.000246273	0.346771	0.284291	0.0802189	-0.878449	0.458923	0.00597459	0.00053478	-0.316736	-0.181368	-0.0922094	-0.538107	-0.114363	-0.125806	1.27049	1.3272	0.0308973	-0.0461841	-0.508281	-0.249791	-0.0774641	2.14903	1.52321	0.0497249	-0.057201
1.375	0.00798828	0.12608	-0.00343969	1.06788	0.939034	-0.325919	0.568181	-0.116854	-0.00794035	-1.96593	0.0621214	0.0584262	0.000246273	0.316424	0.278047	0.0884817	-0.869138	0.468813	0.00597459	0.00053478	-0.314561	-0.171862	-0.10993	-0.546758	-0.109771	-0.139223	1.2537	1.31788	0.0308973	-0.0461841	-0.47539	-0.255305	-0.0643164	2.16331	1.52176	0.0497249	-0.057201
1.38333	0.00301993	0.117167	-0.00335504	1.06674	0.94041	-0.325975	0.612058	-0.109168	-0.0118162	-1.94473	0.0693248	0.0584262	0.000246273	0.282887	0.269044	0.0988855	-0.852821	0.47157	0.00597459	0.00053478	-0.310647	-0.159094	-0.127828	-0.557832	-0.105427	-0.154753	1.24502	1.30934	0.0308973	-0.0461841	-0.447199	-0.25932	-0.0528455	2.1832	1.5219	0.0497249	-0.057201
1.39167	-0.00277181	0.106182	-0.00268589	1.06604	0.942852	-0.326129	0.651786	-0.1012	-0.0201246	-1.9127	0.0760361	0.0584262	0.000246273	0.246987	0.257359	0.110406	-0.830386	0.466703	0.00597459	0.00053478	-0.304807	-0.143369	-0.145409	-0.571161	-0.101579	-0.172027	1.24372	1.30266	0.0308973	-0.0461841	-0.424141	-0.261744	-0.0431434	2.20797	1.52395	0.0497249	-0.057201
1.4	-0.00935863	0.0933925	-0.0018944	1.06579	0.946275	-0.326352	0.686954	-0.0929978	-0.032324	-1.87045	0.0819242	0.0584262	0.000246273	0.209488	0.243131	0.121709	-0.802654	0.453483	0.00597459	0.00053478	-0.297019	-0.125167	-0.162049	-0.586435	-0.0984634	-0.190518	1.24866	1.29869	0.0308973	-0.0461841	-0.406287	-0.262644	-0.0349787	2.23659	1.52807	0.0497249	-0.057201
